<svg xmlns="http://www.w3.org/2000/svg" xmlns:xlink="http://www.w3.org/1999/xlink" version="1.1" width="1280" height="1024" xml:space="preserve"><rect id="backgroundrect" width="100%" height="100%" x="0" y="0" fill="none" stroke="none"/>
<desc>Created with Fabric.js 3.6.3</desc>
<defs>
</defs>




<g class="currentLayer" style=""><title>Layer 1</title><g id="logo-logo">
<g style="" paint-order="stroke" stroke-width="0" id="svg_2">
		<g stroke-width="0" id="svg_3">
<path style="stroke: none; stroke-width: 1; stroke-dasharray: none; stroke-linecap: butt; stroke-dashoffset: 0; stroke-linejoin: miter; stroke-miterlimit: 4; fill: rgb(46,54,143); fill-rule: nonzero; opacity: 1;" paint-order="stroke" d="m764.8001553100192,244.50630816589296 c14.108471574938127,-7.445099035064534 41.13590834944411,-15.830406702158266 75.87198748768947,1.3836024755429666 v0 c33.73888816488107,16.72075578551925 49.67613675704265,59.87597585602606 36.18734814412377,100.22481561577905 v0 l0.016026283500497687,0.008903490833609825 c0,0 -0.29915729200929014,0.8369281383593234 -0.8565158181932652,2.3487408819062714 v0 c-0.29915729200929014,0.8315860438591575 -0.5894110931849704,1.657829993218149 -0.9188402540285339,2.4876353389105845 v0 C865.0409972092988,378.0141532158723 813.2102156705225,511.9208746551973 753.9752911545164,565.2403198613531 v0 h0.008903490833609825 c0,0 80.20976822182418,-71.46654022321933 162.6756810208851,-145.88547800686368 v0 c30.50514029411398,-27.526032261188128 48.103780275827155,-60.34786087020738 54.95234542503983,-93.26050508572945 v0 c12.229835009046456,-65.11122846618863 -67.64872335376745,-95.55760572080078 -136.60091776557536,-95.5593864189675 v0 c-27.219752176511953,0 -52.73181481113754,4.7437799161473135 -70.21114801568035,13.971357816100534 m-0.11218398450348381,0.05876303950182485 c0.03739466150116127,-0.019587679833941614 0.07478932300232254,-0.03917535966788323 0.11218398450348381,-0.05876303950182485 v0 c-0.03739466150116127,0.019587679833941614 -0.07478932300232254,0.040956057834605195 -0.11218398450348381,0.05876303950182485 m-0.06410513400199074,0.0356139633344393 c0.02136837800066358,-0.012464887167053755 0.04273675600132716,-0.023149076167385544 0.06410513400199074,-0.0356139633344393 v0 c-0.023149076167385547,0.012464887167053755 -0.04273675600132716,0.023149076167385544 -0.06410513400199074,0.0356139633344393 m-0.16026283500497687,0.08369281383593234 c0.053420945001658955,-0.02849117066755144 0.10684189000331791,-0.05698234133510288 0.16026283500497687,-0.08369281383593234 v0 c-0.053420945001658955,0.02849117066755144 -0.10684189000331791,0.055201643168380915 -0.16026283500497687,0.08369281383593234 m-0.03027186883427341,0.016026283500497687 c0.010684189000331792,-0.005342094500165895 0.019587679833941617,-0.01068418900033179 0.03027186883427341,-0.016026283500497687 v0 c-0.007122792666887861,0.005342094500165895 -0.023149076167385547,0.012464887167053755 -0.03027186883427341,0.016026283500497687 m-0.18875400567252829,0.101499795503152 c0.06410513400199074,-0.033833265167717334 0.12464887167053755,-0.0658858321687127 0.18875400567252829,-0.101499795503152 v0 c-0.062324435835268775,0.033833265167717334 -0.1264295698372595,0.06766653033543467 -0.18875400567252829,0.101499795503152 m-0.008903490833609825,0.005342094500165895 c0.0035613963334439305,-0.001780698166721965 0.005342094500165896,-0.00356139633344393 0.008903490833609825,-0.005342094500165895 v0 c-0.0035613963334439305,0.001780698166721965 -0.005342094500165896,0.00356139633344393 -0.008903490833609825,0.005342094500165895 m-0.20121889283958205,0.10862258817003986 c0.0658858321687127,-0.0356139633344393 0.13355236250414737,-0.07300862483560057 0.20121889283958205,-0.10862258817003986 v0 c-0.06766653033543467,0.0356139633344393 -0.13533306067086934,0.07300862483560057 -0.20121889283958205,0.10862258817003986 " stroke-linecap="round" stroke-width="0" id="svg_4"/>
</g>
		<g stroke-width="0" id="svg_5">
<path style="stroke: none; stroke-width: 1; stroke-dasharray: none; stroke-linecap: butt; stroke-dashoffset: 0; stroke-linejoin: miter; stroke-miterlimit: 4; fill: rgb(238,0,0); fill-rule: nonzero; opacity: 1;" paint-order="stroke" d="m753.9751140320917,474.85135506150414 h0.008903490833609825 c0,0 3.342370458937128,-2.9844501274260127 9.12607810445007,-8.14847481091971 C758.911209350245,468.84327944698424 754.2902976076015,470.27318007486195 749.3898162527827,470.7682141652107 C752.3457752095411,473.40008605562576 753.9751140320917,474.85135506150414 753.9751140320917,474.85135506150414 " stroke-linecap="round" stroke-width="0" id="svg_6"/>
</g>
		<g stroke-width="0" id="svg_7">
<path style="stroke: none; stroke-width: 1; stroke-dasharray: none; stroke-linecap: butt; stroke-dashoffset: 0; stroke-linejoin: miter; stroke-miterlimit: 4; fill: rgb(46,54,143); fill-rule: nonzero; opacity: 1;" paint-order="stroke" d="m634.9195812597404,329.7197003062695 v33.359599455369285 h-33.357818757202566 v33.361380153536004 h33.357818757202566 v33.361380153536004 h33.36138015353601 v-33.361380153536004 h33.35959945536929 v-33.361380153536004 h-33.35959945536929 v-33.359599455369285 z" stroke-linecap="round" stroke-width="0" id="svg_8"/>
</g>
		<g stroke-width="0" id="svg_9">
<path style="stroke: none; stroke-width: 1; stroke-dasharray: none; stroke-linecap: butt; stroke-dashoffset: 0; stroke-linejoin: miter; stroke-miterlimit: 4; fill: rgb(238,0,0); fill-rule: nonzero; opacity: 1;" paint-order="stroke" d="m759.3262931955304,248.82604660649304 c0.18341191117236239,-0.1175260790036497 0.37394661501161264,-0.2368328561740213 0.564481318850863,-0.3579203315111149 v0 c-0.18875400567252829,0.1175260790036497 -0.37750801134505657,0.23861355434074327 -0.564481318850863,0.3579203315111149 m-0.47010431601459873,0.3080607828428999 c0.15492074050481097,-0.10328049366987396 0.3116221791763439,-0.20478028917302596 0.47010431601459873,-0.3080607828428999 v0 c-0.16204353317169884,0.10328049366987396 -0.31874497184323175,0.20656098733974793 -0.47010431601459873,0.3080607828428999 " stroke-linecap="round" stroke-width="0" id="svg_10"/>
</g>
		<g stroke-width="0" id="svg_11">
<path style="stroke: none; stroke-width: 1; stroke-dasharray: none; stroke-linecap: butt; stroke-dashoffset: 0; stroke-linejoin: miter; stroke-miterlimit: 4; fill: rgb(238,0,0); fill-rule: nonzero; opacity: 1;" paint-order="stroke" d="m761.4738156193379,247.4959285481034 c0.5716041115177508,-0.34367474617733923 1.1556731102025555,-0.6784460015210686 1.7433035052208035,-1.013217256864798 v0 c-0.612560169352356,0.34189404801061724 -1.1912870735369947,0.6802266996877906 -1.7433035052208035,1.013217256864798 m-0.4024377856791641,0.24395564884090917 c0.1317716643374254,-0.08191211566921039 0.2653240268415728,-0.1620435331716988 0.4024377856791641,-0.24395564884090917 v0 c-0.13533306067086934,0.08013141750248842 -0.2706661213417387,0.1620435331716988 -0.4024377856791641,0.24395564884090917 " stroke-linecap="round" stroke-width="0" id="svg_12"/>
</g>
		<g stroke-width="0" id="svg_13">
<path style="stroke: none; stroke-width: 1; stroke-dasharray: none; stroke-linecap: butt; stroke-dashoffset: 0; stroke-linejoin: miter; stroke-miterlimit: 4; fill: rgb(238,0,0); fill-rule: nonzero; opacity: 1;" paint-order="stroke" d="m754.0394177281635,252.72049870822843 c0.0035613963334439305,-0.00356139633344393 0.008903490833609825,-0.008903490833609825 0.012464887167053757,-0.012464887167053755 v0 c-0.0035613963334439305,0.00356139633344393 -0.008903490833609825,0.008903490833609825 -0.012464887167053757,0.012464887167053755 m-0.06410513400199074,0.05342094500165895 h0.008903490833609825 c0,0 0.02492977433410751,-0.026710472500829474 0.05520164316838092,-0.05342094500165895 v0 c-0.023149076167385547,0.019587679833941614 -0.046298152334771095,0.033833265167717334 -0.06410513400199074,0.05342094500165895 " stroke-linecap="round" stroke-width="0" id="svg_14"/>
</g>
		<g stroke-width="0" id="svg_15">
<path style="stroke: none; stroke-width: 1; stroke-dasharray: none; stroke-linecap: butt; stroke-dashoffset: 0; stroke-linejoin: miter; stroke-miterlimit: 4; fill: rgb(238,0,0); fill-rule: nonzero; opacity: 1;" paint-order="stroke" d="m388.98025509391874,303.72503368920115 c-7.153064535722133,0 -12.974166842736235,5.817540910680658 -12.974166842736235,12.967044050069346 v0 c0,7.147722441221966 5.821102307014103,12.968824748236068 12.974166842736235,12.968824748236068 v0 h6.198610318359159 c7.15128383755541,0 12.96882474823607,-5.821102307014103 12.96882474823607,-12.968824748236068 v0 c0,-7.149503139388687 -5.817540910680659,-12.967044050069346 -12.96882474823607,-12.967044050069346 v0 zm-7.272371312892504,12.967044050069346 c0,-4.019035762291474 3.2568969469344737,-7.272371312892503 7.272371312892504,-7.272371312892503 v0 h6.198610318359159 c4.019035762291475,0 7.275932709225948,3.253335550601029 7.275932709225948,7.272371312892503 v0 c0,4.017255064124752 -3.2568969469344737,7.2741520110592255 -7.275932709225948,7.2741520110592255 v0 h-6.198610318359159 c-4.01547436595803,0 -7.272371312892504,-3.2568969469344737 -7.272371312892504,-7.2741520110592255 " stroke-linecap="round" stroke-width="0" id="svg_16"/>
</g>
		<g stroke-width="0" id="svg_17">
<path style="stroke: none; stroke-width: 1; stroke-dasharray: none; stroke-linecap: butt; stroke-dashoffset: 0; stroke-linejoin: miter; stroke-miterlimit: 4; fill: rgb(238,0,0); fill-rule: nonzero; opacity: 1;" paint-order="stroke" d="m613.5316160139836,303.16050367938465 h76.11594313653038 c-6.606390198538489,-14.386260488946753 -21.213457260158766,-24.431178847425354 -38.17282660001876,-24.431178847425354 v0 c-16.859650242523564,0 -31.379463093974465,10.044918358478602 -37.943116536511624,24.431178847425354 " stroke-linecap="round" stroke-width="0" id="svg_18"/>
</g>
		<g stroke-width="0" id="svg_19">
<path style="stroke: none; stroke-width: 1; stroke-dasharray: none; stroke-linecap: butt; stroke-dashoffset: 0; stroke-linejoin: miter; stroke-miterlimit: 4; fill: rgb(238,0,0); fill-rule: nonzero; opacity: 1;" paint-order="stroke" d="m753.9841740846172,181.99468453556074 h-0.008903490833609825 c0,0 -60.14308058103436,-54.537442752193606 -150.0451889243262,-9.984374620810057 v0 c-37.59409969583412,18.62610282391175 -62.37963747843715,56.234448105079636 -69.08040467981189,99.28994907825002 v0 h-20.72020386797678 c-4.859525296984242,0 -9.026359007113639,2.947055465924852 -11.067039106177011,7.181555706389684 v0 c-2.135057101899636,-4.234500240464832 -6.4853027232013964,-7.181555706389684 -11.544266214858498,-7.181555706389684 v0 h-6.2039524128593255 c-7.1459417430552445,0 -12.96882474823607,5.815760212513936 -12.96882474823607,12.97060544640279 v0 c0,7.147722441221966 5.822883005180825,12.967044050069346 12.96882474823607,12.967044050069346 v0 h6.2039524128593255 c5.058963491657102,0 9.409209112958862,-2.9488361640915737 11.544266214858498,-7.185117102723127 v0 c2.0406800990633713,4.236280938631554 6.207513809192769,7.185117102723127 11.067039106177011,7.185117102723127 v0 h80.24716288332534 c-0.033833265167717334,0.07478932300232254 -0.0658858321687127,0.14957864600464507 -0.09793839916970808,0.22436796900696754 v0 h-36.903188807146 c-6.745284655542803,0 -13.243052265911253,2.268609464403783 -18.54241001007582,6.41763619286596 v0 h-113.11528964467938 c-7.067591023719479,0 -12.812123309564537,5.746312984011779 -12.812123309564537,12.812123309564535 v0 c0,7.067591023719478 5.744532285845058,12.813904007731256 12.812123309564537,12.813904007731256 v0 h101.55499714632037 V354.73487159475826 h-175.58574272961934 c-7.056906834719147,0 -12.78007074256354,3.921097363121766 -14.528716342284511,9.364691658790813 v0 c-1.520716234380558,-5.470304768169875 -6.49776761036845,-9.52495449379579 -12.445299487219811,-9.52495449379579 v0 h-6.198610318359159 c-7.15128383755541,0 -12.974166842736235,5.817540910680658 -12.974166842736235,12.968824748236068 v0 c0,7.158406630222297 5.822883005180825,12.97060544640279 12.974166842736235,12.97060544640279 v0 h6.198610318359159 c5.956435367684972,0 10.924583252839254,-4.056430423792635 12.445299487219811,-9.523173795629067 v0 c1.7486455997209693,5.441813597502324 7.471809507565363,9.361130262457367 14.528716342284511,9.361130262457367 v0 h175.58574272961934 v11.515775044190944 h-124.21794271419081 c-5.206761439495025,0 -9.674533139800435,3.12690598076377 -11.677818577362645,7.592896982902458 v0 c-2.0157503247292645,-4.551464514141341 -6.565434140703885,-7.749598421573991 -11.852326997701399,-7.749598421573991 v0 h-6.2039524128593255 c-7.153064535722133,0 -12.970605446402791,5.813979514347214 -12.970605446402791,12.965263351902623 v0 c0,7.147722441221966 5.817540910680659,12.968824748236068 12.970605446402791,12.968824748236068 v0 h6.2039524128593255 c5.286892856997514,0 9.836576672972134,-3.192791812932483 11.852326997701399,-7.7531598179074335 v0 c2.0032854375622104,4.465991002138687 6.4710571378676205,7.592896982902458 11.677818577362645,7.592896982902458 v0 h124.21794271419081 v11.627959028694429 h-171.97270614934047 c-8.477903971763274,0 -15.127030926303089,5.627006206841409 -15.127030926303089,12.812123309564535 v0 c0,7.186897800889848 6.649126954539817,12.81568470589798 15.127030926303089,12.81568470589798 v0 h182.4165008971648 c5.461401277336266,4.733095727146982 12.354483880716991,7.309765974393665 19.65890776061049,7.309765974393665 v0 h80.09936493548742 c63.832687182482275,57.39012121528219 116.50039685961784,104.3061758139058 116.50039685961784,104.3061758139058 v0 c59.23492451600616,-53.31944520615579 111.06570605478238,-187.2261666454808 121.12486999859478,-214.28031389248758 v0 c-5.411541728668051,13.673981222257966 -14.29366418427721,26.89032301566839 -27.1342786645093,38.47910668469493 v0 C821.7931602733896,414.17991849443774 796.0211157064227,437.2737930186548 778.1072921491997,453.3036379154861 v0 c0.0035613963334439305,-0.005342094500165895 0.0035613963334439305,-0.005342094500165895 0.010684189000331792,-0.01068418900033179 v0 c4.04218483845886,-6.161215656857998 6.415855494699239,-13.511937689086267 6.415855494699239,-21.412895454831624 v0 v-104.35425466440729 c0,-21.55357061000266 -17.520289262377414,-39.09344755221401 -39.06851777787991,-39.09344755221401 v0 h-31.0660602166314 c-10.434891256990714,-20.5759673164723 -30.278991626940293,-34.75032472357914 -53.21794541065264,-37.95202002734523 v0 c1.971232870561215,-1.2464887167053753 3.986983195290479,-2.4288722994087597 6.102452617356174,-3.474142123274553 v0 c51.94118482511299,-25.74177269813272 86.69150954869212,5.767681362012443 86.69150954869212,5.767681362012443 v0 c0.02136837800066358,-0.023149076167385544 0.04985954866821502,-0.040956057834605195 0.0765700211690445,-0.0658858321687127 v0 c0.302718688342734,-0.26710472500829474 1.9391803035602195,-1.6791983712188128 4.804323653815862,-3.573861220610983 v0 c0.33833265167717336,-0.22436796900696754 0.6855687941879566,-0.4469552398472131 1.0345856348654616,-0.6659811143540149 v0 c0.37394661501161264,-0.24039425250746524 0.7728230043573329,-0.4807885050149305 1.180602884536663,-0.7283055501892836 v0 c0.6998143795217323,-0.42914825817999347 1.419216438877406,-0.8440509310262113 2.145741290899968,-1.257172905705707 v0 c0.2706661213417387,-0.151359344171367 0.5377708463500335,-0.2938151975091242 0.8173404585253818,-0.450516636180657 v0 c61.16698202689949,-33.2064594130312 224.704520960478,-10.01642718781105 207.57776599294615,81.17846802452092 v0 c13.36770113758179,-64.20129170299371 -14.25805022094277,-128.77653002099902 -67.58461821976546,-155.20031011698626 v0 c-26.071201858976288,-12.918965199567852 -49.64408419004166,-17.506043677043632 -69.96897306500617,-17.507824375210358 v0 c-49.76339096721203,-0.001780698166721965 -80.07443516115332,27.49219899602041 -80.07443516115332,27.49219899602041 m-102.50945136368335,82.49974606422862 c24.8318359349378,0 46.107617630931834,16.234625186004152 53.428067794325834,38.666079992200736 v0 h40.922224569437475 c13.47632372575183,0 24.408029771257972,10.924583252839252 24.408029771257972,24.40090697859108 v0 v104.39164932590846 c0,13.47810442391855 -10.931706045506143,24.402687676757804 -24.408029771257972,24.402687676757804 v0 h-114.68764612589487 h-73.76186016012394 c-6.8236353748785685,0 -12.983070333569845,-2.7992575180869284 -17.415228070540813,-7.313327370727109 v0 H355.30010014090306 c-5.206761439495025,0 -9.430577490959527,-3.1874497184323167 -9.430577490959527,-7.117450572387692 v0 c0,-3.9282201557886536 4.2238160514645005,-7.115669874220971 9.430577490959527,-7.115669874220971 v0 h177.85079079768968 c-0.10684189000331791,-0.9366472356957534 -0.18163121300564042,-1.8893207548920044 -0.18163121300564042,-2.8562398594220313 v0 v-20.16106464362608 h-129.91439614953438 c-3.935342948455542,0 -7.122792666887859,-3.1821076239321506 -7.122792666887859,-7.115669874220971 v0 c0,-3.9335622502888197 3.187449718432317,-7.117450572387692 7.122792666887859,-7.117450572387692 v0 h129.91439614953438 V374.6608840803772 H351.6870635606242 c-5.212103533995191,0 -9.434138887292969,-3.1838883220988725 -9.434138887292969,-7.117450572387692 v0 c0,-3.9335622502888197 4.222035353297779,-7.121011968721136 9.434138887292969,-7.121011968721136 v0 h181.2821961649629 v-32.861003968687136 c0,-1.2821026800398145 0.1264295698372595,-2.525030000411746 0.31696427367650976,-3.7519310372831796 v0 h-107.56841485534045 c-3.9317815521220987,0 -7.121011968721137,-3.1874497184323167 -7.121011968721137,-7.117450572387692 v0 c0,-3.9317815521220982 3.1892304165990386,-7.1192312705544145 7.121011968721137,-7.1192312705544145 v0 h107.94948426301895 h7.251002934891841 c4.35024562130176,-3.970956911789981 10.107242794313873,-6.412294098365795 16.4572124568444,-6.412294098365795 v0 h40.89017200243648 c1.3301815305413078,-4.102728576127407 3.1340287734306584,-7.991773372248177 5.326068216665397,-11.617274839694097 v0 h-70.57084904535819 h-18.891426850753323 c-3.7252205647823504,0 -6.736381164709193,-3.258677645101195 -6.736381164709193,-7.277713407392668 v0 c0,-4.01547436595803 3.011160599926843,-7.2741520110592255 6.736381164709193,-7.2741520110592255 v0 h19.892179220451066 h81.23010827135586 c0.31874497184323175,0 0.6285864528528536,0.05164024683493698 0.9366472356957535,0.09971909733643003 v0 c9.63357708196583,-7.85822100974403 21.909710243347057,-12.596658831391178 35.28631487176245,-12.596658831391178 m-173.43644004238593,19.77643383961414 c0,-4.020816460458196 3.2568969469344737,-7.279494105559391 7.275932709225948,-7.279494105559391 v0 h6.2039524128593255 c4.0119129696245865,0 7.277713407392669,3.258677645101195 7.277713407392669,7.279494105559391 v0 c0,4.013693667791308 -3.2658004377680836,7.272371312892503 -7.277713407392669,7.272371312892503 v0 h-6.2039524128593255 c-4.019035762291475,0 -7.275932709225948,-3.258677645101195 -7.275932709225948,-7.272371312892503 m-166.80155867317987,83.27256906858595 c0,-4.020816460458196 3.2586776451011956,-7.275932709225947 7.277713407392669,-7.275932709225947 v0 h6.198610318359159 c4.019035762291475,0 7.277713407392669,3.2551162487677514 7.277713407392669,7.275932709225947 v0 c0,4.020816460458196 -3.2586776451011956,7.277713407392668 -7.277713407392669,7.277713407392668 v0 h-6.198610318359159 c-4.019035762291475,0 -7.277713407392669,-3.2568969469344737 -7.277713407392669,-7.277713407392668 m54.80632817536863,37.13289887065313 c0,-4.020816460458196 3.2568969469344737,-7.2741520110592255 7.277713407392669,-7.2741520110592255 v0 h6.2039524128593255 c4.01547436595803,0 7.270590614725783,3.253335550601029 7.270590614725783,7.2741520110592255 v0 c0,4.020816460458196 -3.255116248767752,7.277713407392668 -7.270590614725783,7.277713407392668 v0 h-6.2039524128593255 c-4.020816460458197,0 -7.277713407392669,-3.2568969469344737 -7.277713407392669,-7.277713407392668 " stroke-linecap="round" stroke-width="0" id="svg_20"/>
</g>
		<g stroke-width="0" id="svg_21">
<path style="stroke: none; stroke-width: 1; stroke-dasharray: none; stroke-linecap: butt; stroke-dashoffset: 0; stroke-linejoin: miter; stroke-miterlimit: 4; fill: rgb(238,0,0); fill-rule: nonzero; opacity: 1;" paint-order="stroke" d="m876.0190015444871,349.5886539361786 c0.5573585261839751,-1.5118127435469482 0.8565158181932652,-2.3487408819062714 0.8565158181932652,-2.3487408819062714 v0 l-0.016026283500497687,-0.008903490833609825 c-0.26176263050812887,0.7852878915243865 -0.5555778280172531,1.5776985757156607 -0.8404895346927674,2.3576443727398813 " stroke-linecap="round" stroke-width="0" id="svg_22"/>
</g>
</g>
</g><g id="text-logo-path">
<path style="stroke: none; stroke-width: 0; stroke-dasharray: none; stroke-linecap: butt; stroke-dashoffset: 0; stroke-linejoin: miter; stroke-miterlimit: 4; fill: rgb(27,79,159); fill-rule: nonzero; opacity: 1;" paint-order="stroke" d="M181.38338919602703,731.1546012895045 L169.4255680923995,731.1546012895045 L169.4255680923995,619.7715361825684 L181.38338919602703,619.7715361825684 L218.63584340848124,705.4659707802289 L218.63584340848124,619.7715361825684 L230.59366451210877,619.7715361825684 L230.59366451210877,731.1546012895045 L218.63584340848124,731.1546012895045 L181.38338919602703,645.4601666918442 L181.38338919602703,731.1546012895045 zM262.23165576816456,709.7211427050781 L262.23165576816456,709.7211427050781 L262.23165576816456,641.1852948969723 Q262.23165576816456,629.719970543906 269.5206076764713,623.4554118767667 Q276.7898597147556,617.171153339605 291.26926418125686,617.171153339605 Q305.7486686477581,617.171153339605 313.11642003615464,623.4554118767667 Q320.48417142455116,629.719970543906 320.48417142455116,641.1852948969723 L320.48417142455116,641.1852948969723 L320.48417142455116,709.7211427050781 Q320.48417142455116,721.1864670581444 313.19521951624444,727.4707255953062 Q305.9062676079377,733.754984132468 291.4465630114589,733.754984132468 Q276.96715854495767,733.754984132468 269.59940715656114,727.4707255953062 Q262.23165576816456,721.1864670581444 262.23165576816456,709.7211427050781 zM274.1894768717921,641.1852948969723 L274.1894768717921,709.7211427050781 Q274.1894768717921,723.4519521107263 291.3480636613466,723.4519521107263 Q308.5066504509012,723.4519521107263 308.5066504509012,709.7211427050781 L308.5066504509012,709.7211427050781 L308.5066504509012,641.1852948969723 Q308.5066504509012,627.4741853613466 291.3480636613466,627.4741853613466 Q274.1894768717921,627.4741853613466 274.1894768717921,641.1852948969723 L274.1894768717921,641.1852948969723 zM349.60057931773326,711.3956316569866 L349.60057931773326,711.3956316569866 L349.60057931773326,619.7715361825684 L387.34553028074873,619.7715361825684 L387.34553028074873,630.0548683342877 L361.55840042136083,630.0548683342877 L361.55840042136083,712.1639265878621 Q361.55840042136083,716.9312951332952 364.0799837842345,720.2014735570219 Q366.58186727708573,723.4519521107263 371.1128373822494,723.4519521107263 Q375.62410761739056,723.4519521107263 378.04719163015204,720.2802730371118 Q380.47027564291346,717.0888940934748 380.47027564291346,712.1639265878621 L380.47027564291346,712.1639265878621 L380.47027564291346,691.7351613745807 L392.44779661656344,691.7351613745807 L392.44779661656344,711.3956316569866 Q392.44779661656344,722.1911604292894 386.71513444003034,727.98292221589 Q380.98247226349713,733.754984132468 371.1916368623392,733.754984132468 Q361.40080146118123,733.754984132468 355.490840454446,728.0223219559349 Q349.60057931773326,722.2896597794017 349.60057931773326,711.3956316569866 zM428.4394591475808,731.1546012895045 L416.46193817393083,731.1546012895045 L416.46193817393083,619.7715361825684 L428.4394591475808,619.7715361825684 L428.4394591475808,669.4743082492115 L462.24443610610615,669.4743082492115 L462.24443610610615,619.7715361825684 L474.2022572097337,619.7715361825684 L474.2022572097337,731.1546012895045 L462.24443610610615,731.1546012895045 L462.24443610610615,679.7773402709532 L428.4394591475808,679.7773402709532 L428.4394591475808,731.1546012895045 zM505.84024846578944,709.7211427050781 L505.84024846578944,709.7211427050781 L505.84024846578944,641.1852948969723 Q505.84024846578944,629.719970543906 512.8731020638045,623.4554118767667 Q519.9059556618192,617.171153339605 533.9519629878266,617.171153339605 Q548.0176701838564,617.171153339605 555.2081227420508,623.4554118767667 Q562.4182751702679,629.719970543906 562.4182751702679,641.1852948969723 L562.4182751702679,641.1852948969723 L562.4182751702679,678.851446379898 L517.7980695694171,678.851446379898 L517.7980695694171,709.7211427050781 Q517.7980695694171,723.4519521107263 534.1292618180287,723.4519521107263 Q550.4407541966178,723.4519521107263 550.4407541966178,709.7211427050781 L550.4407541966178,709.7211427050781 L550.4407541966178,700.2652050943019 L562.4182751702679,700.2652050943019 L562.4182751702679,709.7211427050781 Q562.4182751702679,721.1864670581444 555.3854215722529,727.4707255953062 Q548.352567974238,733.754984132468 534.2868607782082,733.754984132468 Q520.2408534522009,733.754984132468 513.030701023984,727.4707255953062 Q505.84024846578944,721.1864670581444 505.84024846578944,709.7211427050781 zM517.7980695694171,641.1852948969723 L517.7980695694171,668.5484143581563 L550.4407541966178,668.5484143581563 L550.4407541966178,641.1852948969723 Q550.4407541966178,627.4741853613466 534.1292618180287,627.4741853613466 Q517.7980695694171,627.4741853613466 517.7980695694171,641.1852948969723 L517.7980695694171,641.1852948969723 zM637.4747799558049,731.1546012895045 L594.1350659064134,731.1546012895045 L594.1350659064134,619.7715361825684 L606.092887010041,619.7715361825684 L606.092887010041,720.8515692677628 L637.4747799558049,720.8515692677628 L637.4747799558049,731.1546012895045 zM669.9401657528035,731.1546012895045 L657.982344649176,731.1546012895045 L657.982344649176,619.7715361825684 L705.104433742878,619.7715361825684 L705.104433742878,630.0548683342877 L669.9401657528035,630.0548683342877 L669.9401657528035,669.4743082492115 L698.2291791050427,669.4743082492115 L698.2291791050427,679.7773402709532 L669.9401657528035,679.7773402709532 L669.9401657528035,731.1546012895045 zM726.439392977192,709.7211427050781 L726.439392977192,709.7211427050781 L726.439392977192,641.1852948969723 Q726.439392977192,629.719970543906 733.4722465752068,623.4554118767667 Q740.5051001732218,617.171153339605 754.5511074992291,617.171153339605 Q768.6168146952589,617.171153339605 775.8072672534533,623.4554118767667 Q783.0174196816704,629.719970543906 783.0174196816704,641.1852948969723 L783.0174196816704,641.1852948969723 L783.0174196816704,678.851446379898 L738.3972140808196,678.851446379898 L738.3972140808196,709.7211427050781 Q738.3972140808196,723.4519521107263 754.7284063294312,723.4519521107263 Q771.0398987080205,723.4519521107263 771.0398987080205,709.7211427050781 L771.0398987080205,709.7211427050781 L771.0398987080205,700.2652050943019 L783.0174196816704,700.2652050943019 L783.0174196816704,709.7211427050781 Q783.0174196816704,721.1864670581444 775.9845660836554,727.4707255953062 Q768.9517124856407,733.754984132468 754.8860052896107,733.754984132468 Q740.8399979636035,733.754984132468 733.6298455353865,727.4707255953062 Q726.439392977192,721.1864670581444 726.439392977192,709.7211427050781 zM738.3972140808196,641.1852948969723 L738.3972140808196,668.5484143581563 L771.0398987080205,668.5484143581563 L771.0398987080205,641.1852948969723 Q771.0398987080205,627.4741853613466 754.7284063294312,627.4741853613466 Q738.3972140808196,627.4741853613466 738.3972140808196,641.1852948969723 L738.3972140808196,641.1852948969723 zM826.6920315214436,731.1546012895045 L814.7342104178158,731.1546012895045 L814.7342104178158,619.7715361825684 L819.8364767536307,619.7715361825684 L824.8599436093557,632.3991528669593 Q830.3759072156417,617.171153339605 842.3337283192693,617.171153339605 L842.3337283192693,617.171153339605 Q862.7624935325507,617.171153339605 862.6836940524609,639.4320064649742 L862.6836940524609,639.4320064649742 L862.6836940524609,650.5624330276588 L851.2183696993945,650.5624330276588 L851.2183696993945,638.7622108842108 Q851.2183696993945,627.4741853613466 841.7624320886182,627.4741853613466 L841.7624320886182,627.4741853613466 Q836.0691696521301,627.4741853613466 831.3806005867868,633.9948423387779 Q826.6920315214436,640.515499316209 826.6920315214436,652.8279180802407 L826.6920315214436,652.8279180802407 L826.6920315214436,731.1546012895045 zM881.0045731733401,709.7211427050781 L881.0045731733401,709.7211427050781 L881.0045731733401,695.1629387584871 L893.0608936270798,695.1629387584871 L893.0608936270798,710.3909382858415 Q893.0608936270798,716.5963973429135 897.3160655519291,720.0241747268199 Q901.590937346801,723.4519521107263 910.0027818463873,723.4519521107263 Q918.4146263459738,723.4519521107263 922.6894981408454,720.0241747268199 Q926.9446700656949,716.5963973429135 926.9446700656949,710.3909382858415 L926.9446700656949,710.3909382858415 L926.9446700656949,694.3355442175442 Q926.9446700656949,688.7998807412356 922.8470971010252,684.2886105060944 Q918.7495241363554,679.7773402709532 911.7166705383406,679.7773402709532 L911.7166705383406,679.7773402709532 L894.4004847886065,679.7773402709532 L894.4004847886065,671.1487972011198 L909.9633821063424,671.1487972011198 Q917.1538346645368,671.1487972011198 921.2120078891617,666.7163264460684 Q925.2701811137865,662.2838556910169 925.2701811137865,656.5905932545287 L925.2701811137865,656.5905932545287 L925.2701811137865,640.515499316209 Q925.2701811137865,634.3297401291595 921.2120078891617,630.9019627452531 Q917.1538346645368,627.4741853613466 909.116287695377,627.4741853613466 Q901.0984405962397,627.4741853613466 897.0796671116598,630.9019627452531 Q893.0608936270798,634.3297401291595 893.0608936270798,640.515499316209 L893.0608936270798,640.515499316209 L893.0608936270798,655.7631987135858 L881.0045731733401,655.7631987135858 L881.0045731733401,641.1852948969723 Q881.0045731733401,617.171153339605 908.6237909448157,617.171153339605 L908.6237909448157,617.171153339605 Q923.0243959312272,617.171153339605 930.136049009332,623.4554118767667 Q937.2477020874367,629.719970543906 937.2477020874367,641.1852948969723 L937.2477020874367,641.1852948969723 L937.2477020874367,656.5905932545287 Q937.2477020874367,671.1487972011198 925.112582153607,675.2463701657896 L925.112582153607,675.2463701657896 Q939.0009905194347,679.0090453400776 938.9221910393449,694.3355442175442 L938.9221910393449,694.3355442175442 L938.9221910393449,709.7211427050781 Q938.9221910393449,733.754984132468 909.9633821063424,733.754984132468 Q881.0045731733401,733.754984132468 881.0045731733401,709.7211427050781 zM968.0385989325271,709.7211427050781 L968.0385989325271,709.7211427050781 L968.1961978927066,709.5635437448985 L968.0385989325271,709.5635437448985 L968.0385989325271,641.1852948969723 Q968.0385989325271,617.171153339605 996.9974078655296,617.171153339605 Q1025.9562167985318,617.171153339605 1025.9562167985318,641.1852948969723 L1025.9562167985318,641.1852948969723 L1025.9562167985318,652.315721459657 L1013.9786958248819,652.315721459657 L1013.9786958248819,640.515499316209 Q1013.9786958248819,627.4741853613466 996.9974078655296,627.4741853613466 Q979.9964200361546,627.4741853613466 979.9964200361546,640.515499316209 L979.9964200361546,640.515499316209 L979.9964200361546,671.3260960313219 Q985.8669813028448,665.1206369742499 998.7112965574827,665.1600367142948 Q1011.5556118121206,665.2191363243621 1018.9233632005171,671.4442952514565 Q1026.2911145889136,677.669454178551 1026.2911145889136,689.1347785316173 L1026.2911145889136,689.1347785316173 L1026.2911145889136,709.7211427050781 Q1026.2911145889136,721.1864670581444 1019.002162680607,727.4707255953062 Q1011.7132107723,733.754984132468 997.2535061758213,733.754984132468 Q982.7741017093201,733.754984132468 975.4063503209236,727.4707255953062 Q968.0385989325271,721.1864670581444 968.0385989325271,709.7211427050781 zM979.9964200361546,687.9724862002927 L979.9964200361546,709.7211427050781 Q979.9964200361546,723.4519521107263 997.155006825709,723.4519521107263 Q1014.3135936152635,723.4519521107263 1014.3135936152635,709.7211427050781 L1014.3135936152635,709.7211427050781 L1014.3135936152635,689.1347785316173 Q1014.3135936152635,675.4236689959915 997.627803706248,675.4236689959915 Q980.9223139272096,675.4236689959915 979.9964200361546,687.9724862002927 L979.9964200361546,687.9724862002927 zM1055.7424202724774,709.7211427050781 L1055.7424202724774,709.7211427050781 L1055.7424202724774,695.1629387584871 L1067.7987407262171,695.1629387584871 L1067.7987407262171,710.3909382858415 Q1067.7987407262171,716.5963973429135 1072.0539126510664,720.0241747268199 Q1076.3287844459383,723.4519521107263 1084.7406289455246,723.4519521107263 Q1093.1524734451111,723.4519521107263 1097.4076453699604,720.0241747268199 Q1101.6825171648322,716.5963973429135 1101.6825171648322,710.3909382858415 L1101.6825171648322,710.3909382858415 L1101.6825171648322,689.1347785316173 Q1101.6825171648322,683.6188149253311 1097.5849442001627,679.1075446901898 Q1093.4873712354927,674.5765745850263 1086.454517637478,674.5765745850263 L1086.454517637478,674.5765745850263 L1057.4957087044754,674.5765745850263 L1057.4957087044754,619.7715361825684 L1111.985549186574,619.7715361825684 L1111.985549186574,630.0548683342877 L1069.4732296781253,630.0548683342877 L1069.4732296781253,664.293242433307 L1086.454517637478,664.293242433307 Q1099.6731304225423,664.293242433307 1106.6665842805123,670.9911982409402 Q1113.6600381384824,677.669454178551 1113.6600381384824,689.1347785316173 L1113.6600381384824,689.1347785316173 L1113.6600381384824,709.7211427050781 Q1113.6600381384824,733.754984132468 1084.7012292054799,733.754984132468 Q1055.7424202724774,733.754984132468 1055.7424202724774,709.7211427050781 z" stroke-linecap="round" stroke-width="0" id="svg_23"/>
</g><g id="tagline-dffac7d0-50be-46f7-b94f-73bb6dd6247b-logo-path">
<path style="stroke: none; stroke-width: 0; stroke-dasharray: none; stroke-linecap: butt; stroke-dashoffset: 0; stroke-linejoin: miter; stroke-miterlimit: 4; fill: rgb(27,79,159); fill-rule: nonzero; opacity: 1;" paint-order="stroke" d="M129.37158290734757,820.2983625316916 L106.440934201215,820.2983625316916 L106.440934201215,761.3957511645641 L112.78429234844411,761.3957511645641 L112.78429234844411,814.8611984054952 L129.37158290734757,814.8611984054952 L129.37158290734757,820.2983625316916 zM138.84722038814635,808.9709372687824 L138.84722038814635,808.9709372687824 L138.84722038814635,772.7231764274733 Q138.84722038814635,766.6753163305809 142.55079595236708,763.3460382967868 Q146.27407138661025,760.036460133015 153.70092238507414,760.036460133015 Q161.1474732535605,760.036460133015 164.94954816789345,763.3460382967868 Q168.75162308222644,766.6753163305809 168.75162308222644,772.7231764274733 L168.75162308222644,772.7231764274733 L168.75162308222644,792.639745020171 L145.170878665353,792.639745020171 L145.170878665353,808.9709372687824 Q145.170878665353,816.2204894370443 153.7994217351864,816.2204894370443 Q162.4279648050198,816.2204894370443 162.4279648050198,808.9709372687824 L162.4279648050198,808.9709372687824 L162.4279648050198,803.96717028308 L168.75162308222644,803.96717028308 L168.75162308222644,808.9709372687824 Q168.75162308222644,815.0384972356973 165.02834764798328,818.348075399469 Q161.32477208376255,821.6773534332632 153.8782212152762,821.6773534332632 Q146.4513702168123,821.6773534332632 142.64929530247932,818.348075399469 Q138.84722038814635,815.0384972356973 138.84722038814635,808.9709372687824 zM145.170878665353,772.7231764274733 L145.170878665353,787.2025808939745 L162.4279648050198,787.2025808939745 L162.4279648050198,772.7231764274733 Q162.4279648050198,765.4736242592114 153.7994217351864,765.4736242592114 Q145.170878665353,765.4736242592114 145.170878665353,772.7231764274733 L145.170878665353,772.7231764274733 zM200.1138161579679,820.2983625316916 L185.51621247133198,820.2983625316916 L185.51621247133198,761.3957511645641 L199.18792226691272,761.3957511645641 Q206.27987547499498,761.3957511645641 209.94405129917078,764.7447290683807 Q213.60822712334664,768.0937069721973 213.60822712334664,774.1021673290448 L213.60822712334664,774.1021673290448 L213.60822712334664,779.4999317151963 Q213.60822712334664,787.2025808939745 207.16636962600523,789.408966336489 L207.16636962600523,789.408966336489 Q214.4947212743569,791.3986532087565 214.4947212743569,799.4559000479388 L214.4947212743569,799.4559000479388 L214.4947212743569,807.591946367211 Q214.4947212743569,813.6595063341257 210.86994519022596,816.98878436792 Q207.24516910609506,820.2983625316916 200.1138161579679,820.2983625316916 L200.1138161579679,820.2983625316916 zM191.83987074853866,791.7532508691606 L191.83987074853866,814.8611984054952 L200.1138161579679,814.8611984054952 Q208.17106299715024,814.8611984054952 208.17106299715024,807.591946367211 L208.17106299715024,807.591946367211 L208.17106299715024,799.4559000479388 Q208.17106299715024,796.0084227940099 206.10257664479292,793.8808368315853 Q204.01439042241316,791.7532508691606 200.1138161579679,791.7532508691606 L200.1138161579679,791.7532508691606 L191.83987074853866,791.7532508691606 zM191.83987074853866,766.852615160783 L191.83987074853866,787.2025808939745 L199.18792226691272,787.2025808939745 Q203.16729601144777,787.2025808939745 205.21608249378264,785.1143946715947 Q207.24516910609506,783.0459083192375 207.24516910609506,779.4999317151963 L207.24516910609506,779.4999317151963 L207.24516910609506,774.1021673290448 Q207.24516910609506,770.6546900751159 205.15698288371527,768.7438026829383 Q203.08849653135798,766.852615160783 199.18792226691272,766.852615160783 L199.18792226691272,766.852615160783 L191.83987074853866,766.852615160783 zM229.9000196319133,808.9709372687824 L229.9000196319133,808.9709372687824 L229.9000196319133,772.7231764274733 Q229.9000196319133,766.6753163305809 233.6232950661565,763.3460382967868 Q237.32687063037724,760.036460133015 244.77342149886357,760.036460133015 Q252.2002724973275,760.036460133015 256.0023474116605,763.3460382967868 Q259.8044223259934,766.6753163305809 259.8044223259934,772.7231764274733 L259.8044223259934,772.7231764274733 L259.8044223259934,792.639745020171 L236.22367790912,792.639745020171 L236.22367790912,808.9709372687824 Q236.22367790912,816.2204894370443 244.85222097895337,816.2204894370443 Q253.48076404878677,816.2204894370443 253.48076404878677,808.9709372687824 L253.48076404878677,808.9709372687824 L253.48076404878677,803.96717028308 L259.8044223259934,803.96717028308 L259.8044223259934,808.9709372687824 Q259.8044223259934,815.0384972356973 256.1008467617727,818.348075399469 Q252.37757132752955,821.6773534332632 244.95072032906563,821.6773534332632 Q237.50416946057928,821.6773534332632 233.70209454624631,818.348075399469 Q229.9000196319133,815.0384972356973 229.9000196319133,808.9709372687824 zM236.22367790912,772.7231764274733 L236.22367790912,787.2025808939745 L253.48076404878677,787.2025808939745 L253.48076404878677,772.7231764274733 Q253.48076404878677,765.4736242592114 244.85222097895337,765.4736242592114 Q236.22367790912,765.4736242592114 236.22367790912,772.7231764274733 L236.22367790912,772.7231764274733 zM282.9123698623281,820.2983625316916 L276.58871158512136,820.2983625316916 L276.58871158512136,761.3957511645641 L279.2875937781971,761.3957511645641 L281.5333789607565,767.2860123012769 Q285.86735036569564,760.036460133015 293.60939928451876,760.036460133015 L293.60939928451876,760.036460133015 Q306.9462112897179,760.036460133015 306.9462112897179,772.7231764274733 L306.9462112897179,772.7231764274733 L306.9462112897179,820.2983625316916 L300.60285314248875,820.2983625316916 L300.60285314248875,772.7231764274733 Q300.60285314248875,769.2756991735444 299.1056630207825,767.3845116513892 Q297.6084728990762,765.4736242592114 293.60939928451876,765.4736242592114 Q289.63002553998376,765.4736242592114 286.28104763616716,768.5468039827138 Q282.9123698623281,771.619983706216 282.9123698623281,774.5552643395612 L282.9123698623281,774.5552643395612 L282.9123698623281,820.2983625316916 zM351.31031858027677,820.2983625316916 L344.9866603030701,820.2983625316916 L344.9866603030701,761.3957511645641 L347.68554249614584,761.3957511645641 L350.3450249491767,768.0937069721973 Q353.26060571249934,760.036460133015 359.584263989706,760.036460133015 L359.584263989706,760.036460133015 Q370.37979276200906,760.036460133015 370.34039302196413,771.797282536418 L370.34039302196413,771.797282536418 L370.34039302196413,777.6875436731308 L364.27283305504926,777.6875436731308 L364.27283305504926,771.442684876014 Q364.27283305504926,765.4736242592114 359.2887659393693,765.4736242592114 L359.2887659393693,765.4736242592114 Q356.2746858259343,765.4736242592114 353.7925022031055,768.9211015131403 Q351.31031858027677,772.3685787670692 351.31031858027677,778.8892357445003 L351.31031858027677,778.8892357445003 L351.31031858027677,820.2983625316916 zM379.85543024280776,808.9709372687824 L379.85543024280776,808.9709372687824 L379.85543024280776,772.7231764274733 Q379.85543024280776,766.6753163305809 383.57870567705095,763.3460382967868 Q387.2822812412717,760.036460133015 394.728832109758,760.036460133015 Q402.1556831082219,760.036460133015 405.9577580225549,763.3460382967868 Q409.7598329368879,766.6753163305809 409.7598329368879,772.7231764274733 L409.7598329368879,772.7231764274733 L409.7598329368879,792.639745020171 L386.17908852001443,792.639745020171 L386.17908852001443,808.9709372687824 Q386.17908852001443,816.2204894370443 394.8076315898478,816.2204894370443 Q403.4361746596812,816.2204894370443 403.4361746596812,808.9709372687824 L403.4361746596812,808.9709372687824 L403.4361746596812,803.96717028308 L409.7598329368879,803.96717028308 L409.7598329368879,808.9709372687824 Q409.7598329368879,815.0384972356973 406.0562573726672,818.348075399469 Q402.332981938424,821.6773534332632 394.90613093996006,821.6773534332632 Q387.45958007147374,821.6773534332632 383.65750515714075,818.348075399469 Q379.85543024280776,815.0384972356973 379.85543024280776,808.9709372687824 zM386.17908852001443,772.7231764274733 L386.17908852001443,787.2025808939745 L403.4361746596812,787.2025808939745 L403.4361746596812,772.7231764274733 Q403.4361746596812,765.4736242592114 394.8076315898478,765.4736242592114 Q386.17908852001443,765.4736242592114 386.17908852001443,772.7231764274733 L386.17908852001443,772.7231764274733 zM425.1651312944443,809.8574314197928 L425.1651312944443,809.8574314197928 L425.1651312944443,761.3957511645641 L445.1210996271869,761.3957511645641 L445.1210996271869,766.852615160783 L431.48878957165095,766.852615160783 L431.48878957165095,810.2514288202418 Q431.48878957165095,812.7730121831155 432.8283807331776,814.5066007450911 Q434.1482720246818,816.2204894370443 436.5319562973983,816.2204894370443 Q438.93534044013734,816.2204894370443 440.21583199159664,814.546000485136 Q441.49632354305595,812.8715115332277 441.49632354305595,810.2514288202418 L441.49632354305595,810.2514288202418 L441.49632354305595,799.4559000479388 L447.81998182026257,799.4559000479388 L447.81998182026257,809.8574314197928 Q447.81998182026257,815.5703937263035 444.78620183680516,818.6238735797833 Q441.75242185334776,821.6773534332632 436.5910559074657,821.6773534332632 Q431.40999009156116,821.6773534332632 428.2777107579915,818.6435734498058 Q425.1651312944443,815.6097934663484 425.1651312944443,809.8574314197928 zM459.1474070831717,809.8574314197928 L459.1474070831717,809.8574314197928 L459.1474070831717,761.3957511645641 L479.10337541591423,761.3957511645641 L479.10337541591423,766.852615160783 L465.47106536037836,766.852615160783 L465.47106536037836,810.2514288202418 Q465.47106536037836,812.7730121831155 466.810656521905,814.5066007450911 Q468.1305478134092,816.2204894370443 470.51423208612573,816.2204894370443 Q472.9176162288647,816.2204894370443 474.198107780324,814.546000485136 Q475.4785993317833,812.8715115332277 475.4785993317833,810.2514288202418 L475.4785993317833,810.2514288202418 L475.4785993317833,799.4559000479388 L481.8022576089899,799.4559000479388 L481.8022576089899,809.8574314197928 Q481.8022576089899,815.5703937263035 478.76847762553257,818.6238735797833 Q475.73469764207516,821.6773534332632 470.57333169619307,821.6773534332632 Q465.39226588028856,821.6773534332632 462.2599865467189,818.6435734498058 Q459.1474070831717,815.6097934663484 459.1474070831717,809.8574314197928 zM493.1296828718991,808.9709372687824 L493.1296828718991,808.9709372687824 L493.1296828718991,772.7231764274733 Q493.1296828718991,766.6753163305809 496.8529583061423,763.3460382967868 Q500.556533870363,760.036460133015 508.00308473884934,760.036460133015 Q515.4299357373133,760.036460133015 519.2320106516462,763.3460382967868 Q523.0340855659792,766.6753163305809 523.0340855659792,772.7231764274733 L523.0340855659792,772.7231764274733 L523.0340855659792,792.639745020171 L499.45334114910577,792.639745020171 L499.45334114910577,808.9709372687824 Q499.45334114910577,816.2204894370443 508.08188421893914,816.2204894370443 Q516.7104272887725,816.2204894370443 516.7104272887725,808.9709372687824 L516.7104272887725,808.9709372687824 L516.7104272887725,803.96717028308 L523.0340855659792,803.96717028308 L523.0340855659792,808.9709372687824 Q523.0340855659792,815.0384972356973 519.3305100017585,818.348075399469 Q515.6072345675153,821.6773534332632 508.1803835690514,821.6773534332632 Q500.7338327005651,821.6773534332632 496.9317577862321,818.348075399469 Q493.1296828718991,815.0384972356973 493.1296828718991,808.9709372687824 zM499.45334114910577,772.7231764274733 L499.45334114910577,787.2025808939745 L516.7104272887725,787.2025808939745 L516.7104272887725,772.7231764274733 Q516.7104272887725,765.4736242592114 508.08188421893914,765.4736242592114 Q499.45334114910577,765.4736242592114 499.45334114910577,772.7231764274733 L499.45334114910577,772.7231764274733 zM546.1420331023139,820.2983625316916 L539.8183748251072,820.2983625316916 L539.8183748251072,761.3957511645641 L542.5172570181829,761.3957511645641 L544.7630422007423,767.2860123012769 Q549.0970136056815,760.036460133015 556.8390625245045,760.036460133015 L556.8390625245045,760.036460133015 Q570.1758745297036,760.036460133015 570.1758745297036,772.7231764274733 L570.1758745297036,772.7231764274733 L570.1758745297036,820.2983625316916 L563.8325163824745,820.2983625316916 L563.8325163824745,772.7231764274733 Q563.8325163824745,769.2756991735444 562.3353262607683,767.3845116513892 Q560.838136139062,765.4736242592114 556.8390625245045,765.4736242592114 Q552.8596887799695,765.4736242592114 549.5107108761529,768.5468039827138 Q546.1420331023139,771.619983706216 546.1420331023139,774.5552643395612 L546.1420331023139,774.5552643395612 L546.1420331023139,820.2983625316916 zM631.1469722491885,820.2983625316916 L608.216323543056,820.2983625316916 L608.216323543056,761.3957511645641 L614.5399818202625,761.3957511645641 L614.5399818202625,814.8611984054952 L631.1469722491885,814.8611984054952 L631.1469722491885,820.2983625316916 zM640.6029098599648,808.9709372687824 L640.6029098599648,808.9709372687824 L640.6029098599648,772.7231764274733 Q640.6029098599648,766.6753163305809 644.3261852942079,763.3460382967868 Q648.0494607284511,760.036460133015 655.476311726915,760.036460133015 Q662.9031627253789,760.036460133015 666.7052376397119,763.3460382967868 Q670.5270124240674,766.6753163305809 670.5270124240674,772.7231764274733 L670.5270124240674,772.7231764274733 L670.5270124240674,792.639745020171 L646.9265681371714,792.639745020171 L646.9265681371714,808.9709372687824 Q646.9265681371714,816.2204894370443 655.5551112070048,816.2204894370443 Q664.1836542768383,816.2204894370443 664.1836542768383,808.9709372687824 L664.1836542768383,808.9709372687824 L664.1836542768383,803.96717028308 L670.5270124240674,803.96717028308 L670.5270124240674,808.9709372687824 Q670.5270124240674,815.0384972356973 666.8037369898242,818.348075399469 Q663.080461555581,821.6773534332632 655.6536105571171,821.6773534332632 Q648.2267595586532,821.6773534332632 644.4049847742978,818.348075399469 Q640.6029098599648,815.0384972356973 640.6029098599648,808.9709372687824 zM646.9265681371714,772.7231764274733 L646.9265681371714,787.2025808939745 L664.1836542768383,787.2025808939745 L664.1836542768383,772.7231764274733 Q664.1836542768383,765.4736242592114 655.5551112070048,765.4736242592114 Q646.9265681371714,765.4736242592114 646.9265681371714,772.7231764274733 L646.9265681371714,772.7231764274733 zM693.6152600903796,820.2983625316916 L687.2916018131729,820.2983625316916 L687.2916018131729,761.3957511645641 L693.6152600903796,761.3957511645641 L693.6152600903796,820.2983625316916 zM710.3404497394401,808.9709372687824 L710.3404497394401,808.9709372687824 L710.3404497394401,772.7231764274733 Q710.3404497394401,766.6753163305809 714.0637251736833,763.3460382967868 Q717.7673007379041,760.036460133015 725.2138516063903,760.036460133015 Q732.6407026048544,760.036460133015 736.4427775191872,763.3460382967868 Q740.2448524335202,766.6753163305809 740.2448524335202,772.7231764274733 L740.2448524335202,772.7231764274733 L740.2448524335202,781.3123197572618 L733.9211941563136,781.3123197572618 L733.9211941563136,772.7231764274733 Q733.9211941563136,765.4736242592114 725.2926510864802,765.4736242592114 Q716.6641080166469,765.4736242592114 716.6641080166469,772.7231764274733 L716.6641080166469,772.7231764274733 L716.6641080166469,808.9709372687824 Q716.6641080166469,816.2204894370443 725.2926510864802,816.2204894370443 Q733.9211941563136,816.2204894370443 733.9211941563136,808.9709372687824 L733.9211941563136,808.9709372687824 L733.9211941563136,803.96717028308 L740.2448524335202,803.96717028308 L740.2448524335202,808.9709372687824 Q740.2448524335202,815.0384972356973 736.5412768692995,818.348075399469 Q732.8180014350563,821.6773534332632 725.3911504365925,821.6773534332632 Q717.9445995681061,821.6773534332632 714.1425246537731,818.348075399469 Q710.3404497394401,815.0384972356973 710.3404497394401,808.9709372687824 zM762.4269060787997,820.2983625316916 L756.103247801593,820.2983625316916 L756.103247801593,761.3957511645641 L762.4269060787997,761.3957511645641 L762.4269060787997,787.6950776445358 L780.2946881891625,787.6950776445358 L780.2946881891625,761.3957511645641 L786.6183464663691,761.3957511645641 L786.6183464663691,820.2983625316916 L780.2946881891625,820.2983625316916 L780.2946881891625,793.1322417707322 L762.4269060787997,793.1322417707322 L762.4269060787997,820.2983625316916 zM803.3435361154297,809.8574314197928 L803.3435361154297,809.8574314197928 L803.3435361154297,761.3957511645641 L823.2995044481722,761.3957511645641 L823.2995044481722,766.852615160783 L809.6868942626588,766.852615160783 L809.6868942626588,810.2514288202418 Q809.6868942626588,812.7730121831155 811.006785554163,814.5066007450911 Q812.3266768456673,816.2204894370443 814.7300609884062,816.2204894370443 Q817.1137452611227,816.2204894370443 818.394236812582,814.546000485136 Q819.6747283640412,812.8715115332277 819.6747283640412,810.2514288202418 L819.6747283640412,810.2514288202418 L819.6747283640412,799.4559000479388 L825.998386641248,799.4559000479388 L825.998386641248,809.8574314197928 Q825.998386641248,815.5703937263035 822.984306527813,818.6238735797833 Q819.9505265443556,821.6773534332632 814.7694607284511,821.6773534332632 Q809.5883949125465,821.6773534332632 806.4758154489994,818.6435734498058 Q803.3435361154297,815.6097934663484 803.3435361154297,809.8574314197928 zM858.16827438791,808.9709372687824 L858.16827438791,808.9709372687824 L858.16827438791,772.7231764274733 Q858.16827438791,766.6753163305809 861.891549822153,763.3460382967868 Q865.6148252563963,760.036460133015 873.0416762548602,760.036460133015 Q880.468527253324,760.036460133015 884.2903020376795,763.3460382967868 Q888.0923769520125,766.6753163305809 888.0923769520125,772.7231764274733 L888.0923769520125,772.7231764274733 L888.0923769520125,777.6875436731308 L881.7687186748059,777.6875436731308 L881.7687186748059,772.7231764274733 Q881.7687186748059,765.4736242592114 873.1401756049725,765.4736242592114 Q864.5116325351391,765.4736242592114 864.5116325351391,772.7231764274733 L864.5116325351391,772.7231764274733 L864.5116325351391,808.9709372687824 Q864.5116325351391,816.2204894370443 873.1401756049725,816.2204894370443 Q881.7687186748059,816.2204894370443 881.7687186748059,808.9709372687824 L881.7687186748059,808.9709372687824 L881.7687186748059,795.8311239638078 L871.5838858731988,795.8311239638078 L871.5838858731988,790.3939598376115 L888.0923769520125,790.3939598376115 L888.0923769520125,808.9709372687824 Q888.0923769520125,815.0384972356973 884.3691015177693,818.348075399469 Q880.6458260835262,821.6773534332632 873.2189750850622,821.6773534332632 Q865.7921240865984,821.6773534332632 861.9900491722653,818.348075399469 Q858.16827438791,815.0384972356973 858.16827438791,808.9709372687824 zM903.4779754395464,808.9709372687824 L903.4779754395464,808.9709372687824 L903.4779754395464,772.7231764274733 Q903.4779754395464,766.6753163305809 907.2012508737896,763.3460382967868 Q910.9245263080329,760.036460133015 918.3513773064967,760.036460133015 Q925.7782283049606,760.036460133015 929.600003089316,763.3460382967868 Q933.402078003649,766.6753163305809 933.402078003649,772.7231764274733 L933.402078003649,772.7231764274733 L933.402078003649,792.639745020171 L909.8213335867756,792.639745020171 L909.8213335867756,808.9709372687824 Q909.8213335867756,816.2204894370443 918.449876656609,816.2204894370443 Q927.0784197264423,816.2204894370443 927.0784197264423,808.9709372687824 L927.0784197264423,808.9709372687824 L927.0784197264423,803.96717028308 L933.402078003649,803.96717028308 L933.402078003649,808.9709372687824 Q933.402078003649,815.0384972356973 929.6788025694059,818.348075399469 Q925.9555271351627,821.6773534332632 918.5286761366988,821.6773534332632 Q911.1018251382349,821.6773534332632 907.2997502239019,818.348075399469 Q903.4779754395464,815.0384972356973 903.4779754395464,808.9709372687824 zM909.8213335867756,772.7231764274733 L909.8213335867756,787.2025808939745 L927.0784197264423,787.2025808939745 L927.0784197264423,772.7231764274733 Q927.0784197264423,765.4736242592114 918.449876656609,765.4736242592114 Q909.8213335867756,765.4736242592114 909.8213335867756,772.7231764274733 L909.8213335867756,772.7231764274733 zM956.4903256699613,820.2983625316916 L950.1666673927546,820.2983625316916 L950.1666673927546,761.3957511645641 L952.8655495858303,761.3957511645641 L955.1310346384122,767.2072128211871 Q957.0222221605674,763.9173345274378 960.1151017540922,761.9867472652377 Q963.2276812176393,760.036460133015 966.8524573017703,760.036460133015 L966.8524573017703,760.036460133015 Q976.0128968622098,760.036460133015 978.5344802250835,766.6753163305809 L978.5344802250835,766.6753163305809 Q982.8684516300226,760.036460133015 989.9407049680824,760.036460133015 L989.9407049680824,760.036460133015 Q1002.7259206126529,760.036460133015 1002.7259206126529,772.7231764274733 L1002.7259206126529,772.7231764274733 L1002.7259206126529,820.2983625316916 L996.3628625954013,820.2983625316916 L996.3628625954013,772.7231764274733 Q996.3628625954013,765.4736242592114 989.8619054879927,765.4736242592114 L989.8619054879927,765.4736242592114 Q986.0598305736597,765.4736242592114 982.8290518899778,768.5468039827138 Q979.5982732062957,771.619983706216 979.5982732062957,774.5552643395612 L979.5982732062957,774.5552643395612 L979.5982732062957,820.2983625316916 L973.2549150590668,820.2983625316916 L973.2549150590668,772.7231764274733 Q973.2549150590668,765.4736242592114 966.753957951658,765.4736242592114 L966.753957951658,765.4736242592114 Q962.951883037325,765.4736242592114 959.7211043536431,768.4089048925566 Q956.4903256699613,771.3638853959242 956.4903256699613,774.2794661592469 L956.4903256699613,774.2794661592469 L956.4903256699613,820.2983625316916 zM1018.0918192301644,808.9709372687824 L1018.0918192301644,808.9709372687824 L1018.0918192301644,799.9089970584552 Q1018.0918192301644,787.2025808939745 1031.1331331850267,787.2025808939745 L1031.1331331850267,787.2025808939745 L1041.633163906993,787.2025808939745 L1041.633163906993,772.3685787670692 Q1041.633163906993,769.0984003433423 1039.544977684613,767.2860123012769 Q1037.4764913322558,765.4736242592114 1033.3986182376086,765.4736242592114 L1033.3986182376086,765.4736242592114 Q1025.3413713984264,765.4736242592114 1025.3413713984264,772.3685787670692 L1025.3413713984264,772.3685787670692 L1025.3413713984264,777.6875436731308 L1018.9783133811746,777.6875436731308 L1018.9783133811746,772.7231764274733 Q1018.9783133811746,766.6753163305809 1022.5636897252607,763.3460382967868 Q1026.1490660693466,760.036460133015 1033.3986182376086,760.036460133015 Q1040.6481704058706,760.036460133015 1044.3320461000687,763.3460382967868 Q1047.9962219242445,766.6753163305809 1047.9962219242445,772.7231764274733 L1047.9962219242445,772.7231764274733 L1047.9962219242445,820.2983625316916 L1045.257939991124,820.2983625316916 L1042.9136554584525,814.5066007450911 Q1041.0027680662747,817.7767791688179 1037.9295883427721,819.7270663010405 Q1034.85640861927,821.6773534332632 1031.1331331850267,821.6773534332632 L1031.1331331850267,821.6773534332632 Q1018.0918192301644,821.6773534332632 1018.0918192301644,808.9709372687824 zM1024.4154775073712,799.9089970584552 L1024.4154775073712,808.9709372687824 Q1024.4154775073712,812.4184145227114 1025.8732678890324,814.3293019148891 Q1027.3310582706938,816.2204894370443 1031.1331331850267,816.2204894370443 Q1034.93520809936,816.2204894370443 1038.2053865230864,813.2852088036992 Q1041.4558650767908,810.349928170354 1041.633163906993,807.4146475370089 L1041.633163906993,807.4146475370089 L1041.633163906993,792.639745020171 L1031.1331331850267,792.639745020171 Q1027.3310582706938,792.639745020171 1025.8732678890324,794.5506324123486 Q1024.4154775073712,796.4418199345039 1024.4154775073712,799.9089970584552 L1024.4154775073712,799.9089970584552 zM1063.834917422295,808.9709372687824 L1063.834917422295,808.9709372687824 L1063.834917422295,772.7231764274733 Q1063.834917422295,766.6753163305809 1067.558192856538,763.3460382967868 Q1071.2814682907813,760.036460133015 1078.708319289245,760.036460133015 Q1086.1351702877091,760.036460133015 1089.937245202042,763.3460382967868 Q1093.7590199863973,766.6753163305809 1093.7590199863973,772.7231764274733 L1093.7590199863973,772.7231764274733 L1093.7590199863973,781.3123197572618 L1087.4156618391685,781.3123197572618 L1087.4156618391685,772.7231764274733 Q1087.4156618391685,765.4736242592114 1078.787118769335,765.4736242592114 Q1070.1585756995014,765.4736242592114 1070.1585756995014,772.7231764274733 L1070.1585756995014,772.7231764274733 L1070.1585756995014,808.9709372687824 Q1070.1585756995014,816.2204894370443 1078.787118769335,816.2204894370443 Q1087.4156618391685,816.2204894370443 1087.4156618391685,808.9709372687824 L1087.4156618391685,808.9709372687824 L1087.4156618391685,803.96717028308 L1093.7590199863973,803.96717028308 L1093.7590199863973,808.9709372687824 Q1093.7590199863973,815.0384972356973 1090.0357445521543,818.348075399469 Q1086.312469117911,821.6773534332632 1078.8856181194474,821.6773534332632 Q1071.4587671209833,821.6773534332632 1067.6369923366278,818.348075399469 Q1063.834917422295,815.0384972356973 1063.834917422295,808.9709372687824 zM1115.9213737616544,820.2983625316916 L1109.597715484448,820.2983625316916 L1109.597715484448,761.3957511645641 L1115.9213737616544,761.3957511645641 L1115.9213737616544,787.6950776445358 L1133.7891558720173,787.6950776445358 L1133.7891558720173,761.3957511645641 L1140.1128141492238,761.3957511645641 L1140.1128141492238,820.2983625316916 L1133.7891558720173,820.2983625316916 L1133.7891558720173,793.1322417707322 L1115.9213737616544,793.1322417707322 L1115.9213737616544,820.2983625316916 zM1156.8380037982843,809.8574314197928 L1156.8380037982843,809.8574314197928 L1156.8380037982843,761.3957511645641 L1176.793972131027,761.3957511645641 L1176.793972131027,766.852615160783 L1163.1813619455136,766.852615160783 L1163.1813619455136,810.2514288202418 Q1163.1813619455136,812.7730121831155 1164.5012532370179,814.5066007450911 Q1165.821144528522,816.2204894370443 1168.224528671261,816.2204894370443 Q1170.6082129439774,816.2204894370443 1171.888704495437,814.546000485136 Q1173.169196046896,812.8715115332277 1173.169196046896,810.2514288202418 L1173.169196046896,810.2514288202418 L1173.169196046896,799.4559000479388 L1179.4928543241026,799.4559000479388 L1179.4928543241026,809.8574314197928 Q1179.4928543241026,815.5703937263035 1176.4787742106678,818.6238735797833 Q1173.4449942272104,821.6773534332632 1168.2639284113059,821.6773534332632 Q1163.0828625954014,821.6773534332632 1159.970283131854,818.6435734498058 Q1156.8380037982843,815.6097934663484 1156.8380037982843,809.8574314197928 z" stroke-linecap="round" stroke-width="0" id="svg_24"/>
</g></g></svg>