<?xml version="1.0" standalone="no"?>
<!DOCTYPE svg PUBLIC "-//W3C//DTD SVG 20010904//EN"
 "http://www.w3.org/TR/2001/REC-SVG-20010904/DTD/svg10.dtd">
<svg version="1.0" xmlns="http://www.w3.org/2000/svg"
 width="512.000000pt" height="512.000000pt" viewBox="0 0 512.000000 512.000000"
 preserveAspectRatio="xMidYMid meet">
<metadata>
Created by potrace 1.11, written by Peter Selinger 2001-2013
</metadata>
<g transform="translate(0.000000,512.000000) scale(0.100000,-0.100000)"
fill="#000000" stroke="none">
<path d="M2715 4058 c-33 -4 -73 -10 -90 -13 -16 -3 -42 -7 -58 -10 -15 -2
-32 -7 -37 -10 -6 -3 -20 -8 -32 -10 -35 -7 -159 -57 -218 -89 -126 -66 -255
-184 -332 -302 -66 -102 -138 -281 -151 -379 -1 -13 -6 -27 -9 -30 -3 -4 -45
-7 -92 -7 -69 0 -91 -4 -110 -19 -26 -20 -46 -25 -46 -10 0 16 -55 31 -103 27
-76 -5 -120 -61 -97 -121 17 -45 39 -59 101 -63 48 -4 63 -1 89 18 l31 22 23
-21 c22 -20 34 -22 175 -22 l152 0 -48 -25 -48 -24 -428 0 -429 0 -29 -29
c-42 -43 -38 -106 10 -138 24 -16 58 -18 404 -19 207 -1 381 -4 385 -8 3 -4 7
-45 8 -92 l0 -84 -40 0 c-23 -1 -323 -2 -668 -3 l-627 -2 -30 -29 c-26 -25
-31 -27 -37 -12 -15 40 -112 59 -171 33 -44 -19 -59 -82 -32 -133 30 -58 152
-60 199 -3 14 16 16 16 47 -11 l32 -29 608 0 c334 0 633 -1 663 -1 l56 0 0
-40 c0 -36 -2 -40 -25 -41 -14 0 -226 -1 -471 -2 l-445 -2 -29 -22 -29 -23
-17 21 c-13 14 -35 21 -78 25 -53 5 -62 3 -89 -20 -37 -31 -46 -69 -26 -111
20 -42 49 -58 98 -56 62 2 73 6 97 28 l23 22 23 -24 c20 -21 33 -24 118 -27
52 -2 103 0 112 3 9 4 21 4 25 2 8 -5 183 -7 202 -3 6 1 13 1 18 0 11 -2 130
-3 142 0 6 1 15 2 20 1 14 -2 229 -3 241 0 5 1 14 0 19 -1 6 -1 23 -3 39 -3
26 -2 30 -6 32 -32 1 -16 0 -35 -3 -40 -2 -7 -202 -11 -621 -10 -339 0 -636
-3 -660 -7 -53 -9 -81 -40 -82 -90 0 -49 44 -88 103 -89 23 0 332 -1 687 -2
l645 -2 50 -25 50 -25 319 -1 318 -1 61 -54 c33 -30 79 -71 101 -91 57 -52 83
-75 160 -143 37 -33 82 -73 100 -90 18 -16 68 -61 111 -100 44 -38 89 -79 101
-90 11 -11 54 -49 94 -85 41 -36 85 -75 99 -88 l25 -23 60 59 c34 33 78 74
100 93 21 19 48 43 60 54 13 11 56 50 97 86 41 37 86 78 100 90 14 13 59 53
99 89 40 36 86 77 103 92 32 30 155 140 185 167 11 9 54 47 96 85 91 82 99 90
206 186 158 141 226 215 300 325 47 70 119 208 134 255 5 14 10 30 12 35 11
29 45 165 50 200 14 100 7 376 -11 405 -2 3 -6 17 -9 31 -14 70 -32 120 -72
205 -87 188 -234 338 -419 431 -58 30 -191 81 -228 88 -10 2 -26 6 -35 9 -102
31 -305 36 -427 12 -60 -12 -121 -30 -130 -37 -5 -5 -15 -9 -22 -9 -17 0 -147
-62 -151 -72 -2 -5 -8 -8 -14 -8 -5 0 -24 -11 -42 -25 -39 -30 -51 -31 -77 -7
-10 11 -32 25 -47 33 -15 8 -29 17 -32 20 -3 3 -43 22 -90 42 -155 66 -329 93
-475 75z m1180 -613 c141 -38 251 -113 324 -218 35 -52 74 -127 65 -127 -4 0
-2 -6 4 -12 5 -7 13 -26 16 -43 3 -16 9 -41 12 -55 9 -41 11 -182 3 -220 -4
-19 -10 -46 -12 -60 -3 -14 -10 -38 -17 -55 -7 -16 -17 -41 -23 -55 -51 -127
-100 -186 -311 -375 -60 -53 -192 -173 -221 -200 -18 -16 -50 -45 -71 -64 -22
-19 -49 -43 -62 -55 l-23 -20 18 39 c16 36 18 82 18 495 l0 455 -29 50 c-46
80 -119 137 -194 152 -15 3 -85 6 -156 7 l-129 1 -26 40 c-42 66 -137 151
-203 184 -62 29 -110 45 -150 50 -19 2 6 16 88 51 89 37 134 45 254 44 107 0
188 -23 274 -76 48 -29 51 -30 75 -13 38 24 151 76 177 81 13 2 33 8 46 13 35
13 185 5 253 -14z m-1144 -200 c107 -32 215 -121 259 -213 14 -29 27 -52 30
-53 3 -1 79 -2 171 -3 195 -2 225 -12 273 -89 l29 -47 -1 -412 c0 -227 -3
-423 -6 -435 -13 -58 -53 -103 -111 -124 -34 -13 -145 -15 -760 -14 -735 2
-754 3 -791 40 -13 13 -106 15 -706 15 -629 0 -693 1 -710 17 -23 21 -23 45 1
67 17 16 71 17 684 18 l665 0 0 84 -1 84 -46 0 c-25 1 -243 1 -484 1 -412 0
-439 1 -456 18 -24 24 -17 68 13 78 11 4 235 7 496 8 l475 0 0 84 0 84 -676 1
c-642 1 -678 2 -697 19 -24 22 -21 56 5 71 12 7 244 11 683 12 366 1 670 2
676 3 16 1 16 261 0 262 -6 1 -188 2 -404 3 -377 1 -394 2 -408 21 -20 27 -17
52 8 69 19 12 91 15 444 15 420 0 421 0 465 23 41 21 57 23 211 23 92 1 169 3
171 5 2 3 11 20 21 39 13 27 14 36 4 43 -7 4 -14 3 -16 -2 -2 -5 -9 -7 -16 -4
-7 3 -153 6 -325 7 -335 2 -330 1 -331 54 0 49 17 51 421 50 l376 0 34 24 c57
40 154 67 235 64 39 -2 82 -6 95 -10z m-1236 -100 c18 -25 18 -36 0 -62 -12
-17 -25 -21 -62 -21 -59 1 -87 27 -71 67 12 34 23 39 74 37 30 -1 48 -8 59
-21z m-1225 -601 c39 -39 3 -92 -63 -92 -37 0 -46 4 -59 26 -28 49 2 81 70 78
23 -1 47 -7 52 -12z m403 -278 c21 -23 21 -35 1 -64 -28 -40 -131 -24 -135 21
-5 45 17 63 74 63 28 -1 48 -7 60 -20z"/>
<path d="M2590 3149 c-24 -5 -60 -16 -80 -25 -41 -19 -143 -120 -137 -137 3
-9 75 -12 263 -13 142 0 265 2 271 4 27 9 -41 93 -107 134 -56 34 -142 49
-210 37z"/>
<path d="M2569 2782 l-46 -3 0 -115 c0 -63 -3 -117 -6 -121 -4 -3 -59 -6 -122
-5 -112 1 -115 1 -116 -21 -3 -74 0 -207 5 -215 3 -5 57 -9 121 -8 96 1 115
-2 116 -14 0 -8 1 -62 2 -120 l2 -105 120 0 120 0 1 111 c0 61 3 115 6 120 4
5 56 9 117 8 62 0 114 3 117 8 4 6 7 152 4 225 0 8 -33 11 -115 10 -63 -1
-117 2 -121 6 -4 4 -7 59 -7 122 l0 115 -41 1 c-22 0 -57 1 -76 2 -19 1 -56 1
-81 -1z"/>
<path d="M660 2942 c-37 -38 -40 -84 -7 -126 20 -24 31 -29 78 -32 68 -4 99
11 122 57 15 31 16 41 5 65 -21 49 -37 58 -104 62 -60 4 -65 3 -94 -26z m144
-28 c20 -20 21 -58 1 -74 -8 -7 -33 -14 -55 -16 -65 -6 -102 45 -63 88 21 23
95 25 117 2z"/>
</g>
</svg>
